<svg width="192" height="38" viewBox="0 0 192 38" fill="none" xmlns="http://www.w3.org/2000/svg">
<g clip-path="url(#clip0_91922_565)">
<path d="M6.07 20.72V18.46C12.7536 17.5423 19.4937 17.0979 26.24 17.13C26.24 17.73 26.24 18.34 26.18 18.95C28.0976 18.099 30.1128 17.4877 32.18 17.13C30.8625 13.722 28.4618 10.8412 25.3471 8.93086C22.2324 7.02051 18.5764 6.1864 14.9414 6.55683C11.3064 6.92726 7.89379 8.48172 5.22852 10.9811C2.56325 13.4804 0.792969 16.7863 0.190001 20.39L6.07 20.72Z" fill="#FDC305"/>
<path d="M27.24 24.23C26.08 25.51 25.85 25.43 25.85 27.68C25.85 28.59 25.85 32.58 25.85 36.86C28.1425 35.346 30.0245 33.2879 31.328 30.8694C32.6315 28.4509 33.3158 25.7474 33.32 23C33.3068 21.9591 33.1997 20.9216 33 19.9C30.9282 21.1295 28.9967 22.5814 27.24 24.23Z" fill="#FDC305"/>
<path d="M6.36 25.72C6.36 25.72 2.57 24.28 1.17 23.89C0.787067 23.7693 0.396097 23.6757 0 23.61C0.108395 26.496 0.965588 29.3041 2.48739 31.7586C4.00919 34.2131 6.14326 36.2296 8.68 37.61L6.36 25.72Z" fill="#FDC305"/>
<path d="M26.29 17.12C26.3307 11.5986 25.862 6.08528 24.89 0.649999C24.89 0.649999 24.75 -0.64 24 0.409999C23.4109 1.65814 23.0067 2.98539 22.8 4.35C18.5418 4.07577 14.2675 4.18957 10.03 4.69C9.24 2 7.85 0.75 7.18 1C6.51 1.25 6.46 4.31 6.46 4.31L6.13 18.41C12.8113 17.506 19.548 17.0749 26.29 17.12V17.12Z" fill="#F06351"/>
<path d="M12.41 14C12.41 13.91 13.41 14.68 13.82 14.92C14.23 15.16 14.43 15.34 14.43 15.51C14.43 15.68 14.16 15.85 13.8 15.85C13.44 15.85 12.89 15.73 12.8 15.58H13.74H14.03C13.4207 15.1294 12.8757 14.5978 12.41 14V14Z" fill="black"/>
<path d="M19.89 14.11L18.8 15.44C18.8 15.5 18.63 15.79 18.98 15.74C19.3942 15.6783 19.8023 15.5812 20.2 15.45C20.31 15.45 20.27 15.26 20.09 15.28C19.91 15.3 19.4 15.33 19.09 15.39L19.93 14.13C19.93 14.13 20 14 19.89 14.11Z" fill="black"/>
<path d="M16.75 20.2C17.2135 19.9958 17.5967 19.6443 17.84 19.2C18.12 18.55 17.84 18.29 17.4 18.2C16.7979 18.0902 16.1765 18.2116 15.66 18.54C15.27 18.9 15.32 19.26 15.61 19.54C15.9613 19.8062 16.3442 20.0279 16.75 20.2V20.2Z" fill="black"/>
<path d="M16.35 21.45C16.2379 21.6785 16.0816 21.8825 15.89 22.05C15.6052 22.2791 15.2551 22.4122 14.89 22.43C14.3638 22.472 13.8406 22.3189 13.42 22C13.2222 21.8808 13.0436 21.7324 12.89 21.56C12.7895 21.4491 12.6669 21.3605 12.53 21.3C12.53 21.3 13.28 25.4 15.1 26.05C16.92 26.7 17.24 25.3 17.3 24.92C17.3601 23.7851 17.0742 22.6588 16.48 21.69C16.46 21.38 16.45 21.58 16.35 21.45Z" fill="#F06351"/>
<path d="M14.71 22.59C14.2453 22.5247 13.7989 22.3651 13.3982 22.1209C12.9975 21.8767 12.651 21.5531 12.38 21.17C12.3667 21.157 12.3561 21.1414 12.3489 21.1242C12.3417 21.1071 12.338 21.0886 12.338 21.07C12.338 21.0514 12.3417 21.0329 12.3489 21.0158C12.3561 20.9986 12.3667 20.983 12.38 20.97C12.393 20.9567 12.4086 20.9461 12.4258 20.9389C12.4429 20.9317 12.4614 20.928 12.48 20.928C12.4986 20.928 12.5171 20.9317 12.5342 20.9389C12.5514 20.9461 12.567 20.9567 12.58 20.97C13.0848 21.6642 13.843 22.1313 14.69 22.27V22.27C15.0217 22.245 15.3426 22.1413 15.6261 21.9674C15.9096 21.7934 16.1475 21.5544 16.32 21.27L16.46 21.08L16.56 21.29C16.56 21.29 16.93 22.05 17.56 22.09C18.19 22.13 18.61 21.68 19.17 20.81C19.183 20.7967 19.1986 20.7861 19.2158 20.7789C19.2329 20.7717 19.2514 20.768 19.27 20.768C19.2886 20.768 19.3071 20.7717 19.3242 20.7789C19.3414 20.7861 19.357 20.7967 19.37 20.81C19.4023 20.8306 19.4255 20.8629 19.4348 20.9C19.4441 20.9372 19.4388 20.9766 19.42 21.01C18.78 22.01 18.15 22.45 17.54 22.41C17.308 22.3763 17.0867 22.2904 16.8927 22.1587C16.6987 22.0271 16.5371 21.8531 16.42 21.65C16.2233 21.9245 15.9676 22.1514 15.6717 22.3141C15.3758 22.4767 15.0471 22.571 14.71 22.59V22.59Z" fill="black"/>
<path d="M26.24 18.92C24.4445 20.5437 22.7512 22.277 21.17 24.11C19.5986 25.9361 17.8238 27.5768 15.88 29C15.66 28.47 14.26 27.49 14.26 27.49C14.26 27.49 11.13 25.35 9.08 23.67C7.97414 22.7373 6.9287 21.7353 5.95 20.67L3.95 20.56C6.84018 24.7655 11.0702 27.8676 15.95 29.36C16.81 29.22 19.22 27.5 21.02 26.1C23.1389 24.2819 25.124 22.3134 26.96 20.21C27.4625 19.621 27.8493 18.9425 28.1 18.21C27 18.6 26.24 18.92 26.24 18.92Z" fill="#F06351"/>
</g>
<g clip-path="url(#clip1_91922_565)">
<path d="M91.5845 29.5385C90.6895 28.2762 90.2453 26.7627 90.32 25.2308V18.8462C90.2116 17.2977 90.6281 15.7575 91.5055 14.4615C92.3748 13.4615 93.7183 13 95.694 13C97.6698 13 98.9343 13.4615 99.7245 14.3077C100.583 15.3794 101.005 16.7214 100.91 18.0769V19.6154H97.0375V17.8462C97.0688 17.3229 96.9881 16.799 96.8004 16.3077C96.7002 16.1094 96.5412 15.9448 96.344 15.8351C96.1469 15.7255 95.9205 15.6757 95.694 15.6923C95.1408 15.6923 94.7457 15.8462 94.5876 16.2308C94.4088 16.7773 94.3286 17.3499 94.3505 17.9231V26.1538C94.3088 26.71 94.4178 27.267 94.6666 27.7692C94.8247 28.1538 95.2199 28.3077 95.7731 28.3077C96.3263 28.3077 96.6424 28.1538 96.8004 27.7692C96.9801 27.2494 97.0605 26.7019 97.0375 26.1538V24.3077H100.91V25.8462C100.99 27.2238 100.571 28.5852 99.7245 29.6923C98.9343 30.6154 97.5907 31.0769 95.694 31.0769C93.7973 31 92.3748 30.5385 91.5845 29.5385Z" fill="#111111"/>
<path d="M105.573 13.2308H110.077L113.397 30.7692H109.761L109.129 27.0769H106.521L105.889 30.7692H102.174L105.573 13.2308ZM108.813 24.7692L107.865 17.9231L106.916 24.7692H108.813Z" fill="#111111"/>
<path d="M116.163 16.1538H113.476V13.2308H122.88V16.0769H120.193V30.7692H116.163V16.1538Z" fill="#111111"/>
<path d="M130.072 13.2308H137.027V15.0769H132.522V20.8462H136.157V22.6154H132.522V29.0769H137.027V30.8462H129.993V13.2308H130.072Z" fill="#111111"/>
<path d="M139.081 13.2308H140.82L145.957 24.8462V13.2308H148.012V30.7692H146.431L141.215 18.7692V30.7692H139.081V13.2308Z" fill="#111111"/>
<path d="M150.383 13.2308H157.337V15.0769H152.833V20.8462H156.468V22.6154H152.833V29.0769H157.337V30.8462H150.383V13.2308Z" fill="#111111"/>
<path d="M159.392 13.2308H163.027C164.457 13.1346 165.879 13.5144 167.058 14.3077C167.927 15 168.322 16.2308 168.322 17.8462C168.322 20.0769 167.611 21.4615 166.11 21.9231L168.638 30.6923H166.189L163.818 22.4615H161.842V30.6923H159.313V13.2308H159.392ZM162.869 20.7692C163.684 20.8346 164.496 20.6165 165.161 20.1538C165.635 19.7692 165.872 19 165.872 17.8462C165.894 17.273 165.814 16.7004 165.635 16.1538C165.457 15.7617 165.152 15.4373 164.766 15.2308C164.222 14.9893 163.624 14.8836 163.027 14.9231H161.921V20.6923H162.869V20.7692Z" fill="#111111"/>
<path d="M171.484 29.4615C170.662 28.1166 170.276 26.5617 170.377 25V19.1538C170.358 18.0391 170.49 16.9268 170.772 15.8462C171.037 15.0386 171.564 14.3367 172.274 13.8462C173.156 13.3377 174.174 13.0967 175.198 13.1538C176.858 13.1538 178.043 13.5385 178.754 14.3846C179.572 15.5019 179.964 16.8624 179.861 18.2308V18.8462H177.49V18.3077C177.493 17.6635 177.44 17.0201 177.332 16.3846C177.265 15.983 177.038 15.6235 176.699 15.3846C176.255 15.1008 175.728 14.9658 175.198 15C174.631 14.9647 174.07 15.1284 173.617 15.4615C173.431 15.614 173.279 15.8018 173.171 16.0134C173.062 16.2251 172.999 16.4561 172.985 16.6923C172.881 17.38 172.828 18.0741 172.827 18.7692V25.3077C172.769 26.3038 172.93 27.3006 173.301 28.2308C173.617 28.8462 174.25 29.0769 175.198 29.0769C175.572 29.1223 175.952 29.0589 176.29 28.8947C176.627 28.7304 176.907 28.4727 177.095 28.1538C177.512 27.1811 177.701 26.1299 177.648 25.0769V23.8462H175.356V22.0769H179.94V30.7692H178.359L178.122 28.7692C177.915 29.4395 177.483 30.0231 176.896 30.4273C176.309 30.8315 175.6 31.0331 174.882 31C174.229 31.0374 173.576 30.9164 172.983 30.6479C172.39 30.3794 171.875 29.9717 171.484 29.4615V29.4615Z" fill="#111111"/>
<path d="M184.998 24.6154L181.125 13.3077H183.496L186.262 21.7692L188.949 13.3077H191.32L187.448 24.6154V30.7692H185.077V24.6154H184.998Z" fill="#111111"/>
</g>
<defs>
<clipPath id="clip0_91922_565">
<rect width="33.32" height="37.61" fill="white"/>
</clipPath>
<clipPath id="clip1_91922_565">
<rect width="101" height="18" fill="white" transform="translate(90.32 13)"/>
</clipPath>
</defs>
</svg>
