  <svg xmlns="http://www.w3.org/2000/svg">
    <!-- Index-icons -->

    <symbol id="arrow" viewBox="0 0 32 12" fill="currentcolor">
      <line y1="6" x2="26" y2="6" stroke="currentcolor" stroke-width="2" />
      <path d="M32 6L25.25 11.1962L25.25 0.803848L32 6Z" />
    </symbol>

    <symbol id="leaf-icon" viewBox="0 0 25 28" fill="currentcolor">
      <path d="M24.775.767c-.1-.45-.479-.767-.91-.767h-.006C18.92.033 6.912.916 2.064 8.38c-2.518 3.878-2.734 8.913-.644 14.965.016.047.05.079.07.122C.745 25.44.456 26.753.448 26.79c-.108.54.215 1.072.721 1.188a.88.88 0 0 0 .197.022c.432 0 .821-.321.916-.79.02-.102 2.408-10.373 10.853-16.378.432-.306.548-.927.26-1.387-.288-.46-.869-.585-1.3-.277-4.789 3.405-7.738 8.008-9.473 11.656-1.24-4.578-.916-8.377.987-11.305C7.35 3.755 16.23 2.365 21.59 2.071 20.437 3.872 19.177 7.174 19.177 13c0 3.12-.83 5.522-2.465 7.14-2.621 2.591-6.88 2.834-9.994 2.584-.517-.045-.966.371-1.006.922-.04.55.348 1.03.864 1.072.623.051 1.289.082 1.98.082 3.171 0 6.87-.663 9.43-3.194 2.034-2.011 3.066-4.906 3.066-8.605 0-9.099 3.215-11.096 3.231-11.105.39-.209.595-.677.492-1.129Z"/>
    </symbol>

    <symbol id="texture-icon" viewBox="0 0 26 29" fill="currentcolor">
      <path d="M10.875 0c-1.631 0-2.9 1.36-2.9 3.081 0 1.722 1.269 3.081 2.9 3.081s2.9-1.359 2.9-3.08c0-1.723-1.269-3.082-2.9-3.082Zm0 1.178c.997 0 1.722.843 1.722 1.903 0 .997-.789 1.903-1.722 1.903-.997 0-1.722-.842-1.722-1.903 0-.997.78-1.903 1.722-1.903ZM0 24.741c0 1.178.408 2.175 1.36 2.99.996.852 2.174.78 2.174.78h19.032c.779 0 1.812-.381 2.628-1.45.843-.997.788-2.357.788-2.357V7.486c0-.435-.109-.598-.743-.598s-.689.271-.689.589v17.218c-.018.3-.072 1.088-.743 1.722-.734.625-1.45.544-1.45.544s-18.125 0-19.031-.027c-.344-.064-.906-.19-1.45-.907-.508-.725-.408-1.63-.408-1.63V7.176c0-.462-.236-.634-.725-.634-.49 0-.743.172-.743.58v17.618ZM16.313 8.428c-1.088.236-2.175.38-4.26 2.356-2.084 1.994-3.625 1.903-5.166 1.813-1.54-.09-3.171-1.54-3.443-1.903-.336-.354-.906-.118-1.088.118-.154.235-.154.643.109.996 1.269 1.179 2.447 2.085 4.713 2.266 2.265.218 4.44-.806 5.89-2.266 1.45-1.45 2.175-1.721 3.263-1.903 2.628-.417 4.168.617 5.075 1.27.997 1.087 1.268.778 1.54.47.544-.716-.226-1.268-1.087-1.903-1.813-1.178-3.535-1.631-5.528-1.269l-.018-.045Zm-9.063 7.16c-1.178 0-2.084.996-2.084 2.265 0 1.269.906 2.266 2.084 2.266s2.084-.997 2.084-2.266c0-1.269-.906-2.266-2.084-2.266Zm11.781.779c-1.54 0-2.81 1.36-2.81 2.99 0 1.632 1.27 2.991 2.81 2.991s2.81-1.36 2.81-2.99c0-1.632-1.27-2.991-2.81-2.991Zm0 1.45c.798 0 1.45.698 1.45 1.54 0 .861-.652 1.541-1.45 1.541-.797 0-1.45-.698-1.45-1.54 0-.861.653-1.541 1.45-1.541Z"/>
    </symbol>

    <symbol id="tableware-icon" viewBox="0 0 25 30" fill="currentcolor">
      <path fill-rule="evenodd" d="M18.617.076a1 1 0 0 1 1.09.217c.909.908 2.097 2.878 3.059 5.918C23.737 9.28 24.5 13.508 24.5 19a1 1 0 0 1-1 1H20v9a1 1 0 1 1-2 0V1a1 1 0 0 1 .617-.924ZM20 18h2.491c-.086-4.816-.786-8.512-1.632-11.186-.278-.88-.57-1.643-.859-2.295V18ZM6 0a1 1 0 0 1 1 1v28a1 1 0 1 1-2 0V1a1 1 0 0 1 1-1Z" clip-rule="evenodd"/><path fill-rule="evenodd" d="M1.5 0a1 1 0 0 1 1 1v5.5c0 .557.192 1.315.7 1.917C3.68 8.983 4.515 9.5 6 9.5a1 1 0 1 1 0 2c-2.015 0-3.43-.733-4.326-1.792A5.068 5.068 0 0 1 .5 6.5V1a1 1 0 0 1 1-1Z" clip-rule="evenodd"/><path fill-rule="evenodd" d="M10.5 0a1 1 0 0 0-1 1v5.5a3.07 3.07 0 0 1-.7 1.917C8.32 8.983 7.484 9.5 6 9.5a1 1 0 0 0 0 2c2.014 0 3.43-.733 4.326-1.792A5.068 5.068 0 0 0 11.5 6.5V1a1 1 0 0 0-1-1Z" clip-rule="evenodd"/>
    </symbol>

    <symbol id="clock-icon" viewBox="0 0 26 31" fill="currentcolor">
      <path d="M5.538 0c-1.063 0-1.063 1.583 0 1.583h6.643v1.604C5.38 3.62 0 9.414 0 16.485c0 4.01 1.743 7.63 4.496 10.069.479.422.542 1.171.107 1.636L3.072 29.74c-.744.686.361 1.752 1.031 1.003l1.998-2.037c.351-.338.872-.422 1.308-.211a12.702 12.702 0 0 0 11.065.063 1.14 1.14 0 0 1 1.297.211l1.934 1.974c.68.633 1.659-.317 1.042-1.003l-1.445-1.477c-.447-.454-.383-1.203.106-1.636a13.462 13.462 0 0 0 3.403-4.583A13.376 13.376 0 0 0 26 16.475c0-7.071-5.41-12.876-12.224-13.288V1.583h6.643c1.063 0 1.063-1.583 0-1.583H5.538ZM1.435 16.475c0-6.533 5.177-11.82 11.565-11.82 6.378 0 11.554 5.287 11.554 11.82 0 6.543-5.176 11.841-11.554 11.841S1.435 23.018 1.435 16.475ZM12.192 8.38c0-1.098 1.658-1.098 1.658 0v8.633c0 .224-.09.439-.249.597a.853.853 0 0 1-.601.247.811.811 0 0 1-.568-.23.8.8 0 0 1-.24-.561V8.38Zm-4.975 2.617c.308 0 .602-.12.82-.337a1.146 1.146 0 0 0 0-1.627 1.163 1.163 0 0 0-.82-.336c-.286.027-.553.16-.746.371a1.146 1.146 0 0 0 0 1.547c.193.212.46.344.746.372v.01Zm11.555 0c.307 0 .602-.12.82-.337a1.146 1.146 0 0 0 0-1.627 1.163 1.163 0 0 0-.82-.336c-.287.027-.553.16-.747.371a1.145 1.145 0 0 0 0 1.547c.194.212.46.344.747.372v.01ZM8.376 23.588c0 1.53-2.317 1.53-2.317 0s2.317-1.53 2.317 0ZM13 27.028a1.169 1.169 0 0 0 .89-.293 1.153 1.153 0 0 0 .38-.851 1.145 1.145 0 0 0-.38-.852 1.162 1.162 0 0 0-1.637.078 1.146 1.146 0 0 0 0 1.547c.194.212.46.344.747.372ZM4.91 16.645a1.143 1.143 0 0 1-.295.883 1.158 1.158 0 0 1-.857.377 1.166 1.166 0 0 1-.858-.377 1.148 1.148 0 0 1-.296-.883c.028-.285.161-.55.374-.742a1.163 1.163 0 0 1 1.559 0c.213.193.346.457.374.742Zm17.327 1.15a1.165 1.165 0 0 0 1.17-.68 1.144 1.144 0 0 0-.694-1.557 1.166 1.166 0 0 0-1.223.318 1.146 1.146 0 0 0 0 1.547c.194.212.46.345.747.372Zm-2.307 5.805c0 1.52-2.317 1.52-2.317-.01 0-1.531 2.317-1.531 2.317 0v.01Z"/>
    </symbol>

    <symbol id="slider-arrow" viewBox="0 0 24 18" fill="currentcolor">
      <path d="M8 0 0 9l8 9V0ZM24 9l-8-9v18l8-9Z"/>
    </symbol>

    <!-- Form-icons -->

    <symbol id="email-icon" viewBox="0 0 19 14" fill="none">
      <path stroke="currentcolor" stroke-width="1.3" d="M1.111 6v8M18.111 6v8M.461 13.35h18M.461 1.35h18M17.811 3.182l-8.35 6.495-8.35-6.495V1.65h16.7v1.532Z"/>
    </symbol>

    <symbol id="telephone-icon" fill="none">
      <path stroke="currentcolor" stroke-linecap="round" stroke-linejoin="round" d="M7 8h8.5m0 0L13 5.5M15.5 8 13 10.5M5.5.5v5h-3v5h3v5H3c-1.5 0-2.5-1-2.5-2.5V3C.5 1.5 1.5.5 3 .5h2.5Z"/>
    </symbol>

    <!-- Catalog-icons -->

    

    <!-- Footer-icons -->

    <symbol id="footer-logo" viewBox="0 0 129 24" fill="currentcolor">
      <g fill="currentcolor" clip-path="url(#a)">
        <path d="M2.103 22.051A9.498 9.498 0 0 1 .5 16.308V7.795a9.63 9.63 0 0 1 1.502-5.846C3.104.615 4.807 0 7.311 0s4.106.615 5.108 1.744a7.487 7.487 0 0 1 1.502 5.025v2.052H9.013V6.46a5.157 5.157 0 0 0-.3-2.05 1.463 1.463 0 0 0-.579-.63 1.415 1.415 0 0 0-.823-.191c-.701 0-1.202.205-1.403.718a6.774 6.774 0 0 0-.3 2.256v10.974a4.334 4.334 0 0 0 .4 2.154c.2.513.702.718 1.403.718.7 0 1.102-.205 1.302-.718.228-.693.33-1.423.3-2.154v-2.461h4.908v2.051a7.98 7.98 0 0 1-1.502 5.128c-1.002 1.231-2.705 1.847-5.108 1.847-2.404-.103-4.207-.718-5.208-2.052ZM19.83.308h5.71l4.206 23.384h-4.607l-.802-4.923h-3.305l-.801 4.923h-4.708L19.83.308Zm4.107 15.384-1.202-9.128-1.202 9.128h2.404ZM33.251 4.205h-3.405V.308h11.918v3.794H38.36v19.59h-5.108V4.205ZM50.879.308h8.814v2.461h-5.71v7.692h4.608v2.36h-4.607v8.615h5.709v2.359h-8.914V.308h.1ZM62.297.308H64.5l6.51 15.487V.308h2.604v23.384h-2.003l-6.61-16v16h-2.705V.308ZM76.619.308h8.814v2.461h-5.71v7.692h4.608v2.36h-4.607v8.615h5.709v2.359h-8.814V.308ZM88.037.308h4.607a7.874 7.874 0 0 1 5.108 1.436c1.102.923 1.602 2.564 1.602 4.717 0 2.975-.901 4.821-2.804 5.436l3.205 11.693H96.65l-3.005-10.975h-2.504V23.59h-3.205V.308h.1Zm4.407 10.05a4.301 4.301 0 0 0 2.904-.82c.601-.512.901-1.538.901-3.077a6.772 6.772 0 0 0-.3-2.256 2.583 2.583 0 0 0-1.102-1.23 4.473 4.473 0 0 0-2.203-.411h-1.402v7.692h1.202v.103ZM103.361 21.949a10.575 10.575 0 0 1-1.403-5.95V8.206c-.024-1.486.144-2.97.501-4.41a5.204 5.204 0 0 1 1.903-2.667 6.421 6.421 0 0 1 3.706-.923c2.103 0 3.606.513 4.507 1.641a7.982 7.982 0 0 1 1.402 5.128v.82h-3.004v-.717a15.503 15.503 0 0 0-.201-2.564 2.056 2.056 0 0 0-.801-1.334 3.04 3.04 0 0 0-1.903-.512 2.955 2.955 0 0 0-2.003.615 2.349 2.349 0 0 0-.801 1.641 19.734 19.734 0 0 0-.201 2.77v8.717a9.527 9.527 0 0 0 .601 3.898c.401.82 1.202 1.128 2.404 1.128.475.06.956-.024 1.384-.243a2.457 2.457 0 0 0 1.02-.988 9.635 9.635 0 0 0 .701-4.102V14.46h-2.905v-2.359h5.809v11.59h-2.003l-.3-2.666a4.186 4.186 0 0 1-1.554 2.21 4.016 4.016 0 0 1-2.553.764 4.907 4.907 0 0 1-2.406-.47 5.037 5.037 0 0 1-1.9-1.581ZM120.488 15.487 115.58.41h3.005l3.505 11.282L125.495.41h3.005l-4.908 15.077v8.205h-3.004v-8.205h-.1Z"/>
      </g>
      <defs>
        <clipPath id="a">
          <path fill="currentcolor" d="M.5 0h128v24H.5z"/>
        </clipPath>
      </defs>
    </symbol>

    <symbol id="vkontakte" viewBox="0 0 27 17" fill="currentcolor">
      <path d="M0 2.339C0 1.484.515 1.023 1.545.956l3.97.025a.52.52 0 0 1 .533.377c.409 1.257.866 2.343 1.372 3.257.506.913 1.168 1.965 1.985 3.156.071.15.187.226.346.226.125 0 .222-.059.293-.176l.08-.277.027-4.35c0-.302-.075-.503-.226-.604-.151-.1-.431-.176-.84-.226-.32-.05-.48-.235-.48-.553 0-.067.01-.118.027-.151C9.005.57 10.072.025 11.83.025L13.322 0c.675 0 1.234.16 1.678.478.444.318.666.821.666 1.509v5.708c.125.084.24.126.347.126.266 0 .497-.15.692-.453 1.954-2.582 3.011-4.308 3.17-5.18 0-.017.019-.059.054-.126.125-.251.329-.47.613-.654.284-.184.533-.31.746-.377a.554.554 0 0 1 .24-.05h4.13l.266.025c.355 0 .63.16.826.478.07.1.12.21.146.327.027.117.045.234.054.352.009.117.013.184.013.2v.177c-.124.687-.44 1.42-.946 2.2-.506.78-1.15 1.622-1.931 2.528-.782.905-1.27 1.5-1.466 1.785-.16.201-.24.386-.24.554 0 .134.071.285.213.452l3.89 4.627c.213.269.32.562.32.88 0 .386-.16.705-.48.956-.32.252-.701.394-1.145.428l-.453.025h-4.05a.855.855 0 0 0-.106.012.862.862 0 0 1-.107.013c-.39 0-.755-.16-1.092-.478-.125-.134-.96-1.123-2.505-2.967a1.387 1.387 0 0 0-.373-.327c-.07.268-.164.654-.28 1.157-.115.503-.2.863-.253 1.081l-.08.428c-.177.586-.55.938-1.119 1.056l-.373.025h-2.61c-1.475 0-2.945-.637-4.41-1.911-1.466-1.275-2.784-2.922-3.957-4.942C2.238 8.102 1.146 5.75.133 3.068A1.916 1.916 0 0 1 0 2.338Zm16.013 6.513c-.373 0-.71-.096-1.013-.29-.302-.192-.453-.456-.453-.791V1.987c0-.336-.089-.575-.266-.717-.178-.143-.489-.214-.933-.214l-1.518.05c-.764 0-1.341.126-1.732.378.781.352 1.172.922 1.172 1.71V7.62a1.5 1.5 0 0 1-.533 1.043 1.59 1.59 0 0 1-1.066.415c-.532 0-.94-.243-1.225-.729C7.06 6.371 6.03 4.493 5.356 2.716l-.24-.654-3.544-.025c-.231 0-.36.013-.386.038-.027.025-.04.096-.04.213 0 .151.017.31.053.478l.56 1.409c1.491 3.638 3.112 6.505 4.862 8.6 1.75 2.096 3.468 3.144 5.155 3.144h2.665c.106 0 .186-.03.24-.088.053-.06.097-.172.133-.34l.053-.251.506-2.213c.142-.302.267-.503.373-.604a.975.975 0 0 1 .693-.277c.426 0 .861.243 1.305.73l2.265 2.716c.142.218.293.327.453.327h4.396c.533 0 .8-.126.8-.378a.466.466 0 0 0-.08-.251l-3.864-4.552c-.302-.352-.453-.73-.453-1.131 0-.403.142-.788.427-1.157.23-.336.679-.893 1.345-1.673a37.63 37.63 0 0 0 1.745-2.188c.498-.679.826-1.295.986-1.848l.08-.327a.371.371 0 0 1-.027-.163.574.574 0 0 0-.026-.189h-4.183c-.267.1-.48.252-.64.453l-.16.478c-.444 1.156-1.607 2.942-3.49 5.356a1.892 1.892 0 0 1-1.305.503Z"/>
    </symbol>

    <symbol id="youtube" viewBox="0 0 24 19" fill="currentcolor">
      <path d="m15.85 8.793-5.236-3.491a.655.655 0 0 0-1.014.545v6.982a.655.655 0 0 0 1.014.546l5.237-3.491a.654.654 0 0 0 0-1.091Zm-4.94 2.814V7.07l3.403 2.27-3.404 2.268Zm12.48-8.563a2.4 2.4 0 0 0-1.452-1.637C18.218-.022 12.251 0 12 0c-.25 0-6.218-.022-9.938 1.407A2.4 2.4 0 0 0 .61 3.044C.327 4.113 0 6.076 0 9.338c0 3.262.327 5.226.61 6.295a2.4 2.4 0 0 0 1.452 1.636c3.72 1.43 9.687 1.407 9.938 1.407h.076c.753 0 6.317-.043 9.862-1.407a2.4 2.4 0 0 0 1.451-1.636c.284-1.07.611-3.033.611-6.295s-.327-5.225-.61-6.294Zm-1.266 12.261a1.09 1.09 0 0 1-.655.742c-3.49 1.342-9.404 1.32-9.469 1.32-.066 0-5.978.022-9.47-1.32a1.09 1.09 0 0 1-.654-.742c-.261-1.003-.567-2.847-.567-5.967 0-3.12.306-4.963.567-5.967a1.09 1.09 0 0 1 .655-.742C6.02 1.287 11.934 1.31 12 1.31c.066 0 5.978-.022 9.47 1.32a1.092 1.092 0 0 1 .654.742c.262 1.004.567 2.847.567 5.967 0 3.12-.305 4.964-.567 5.968Z"/>
    </symbol>

    <symbol id="telegramm"  viewBox="0 0 20 18" fill="currentcolor">
      <path fill-rule="evenodd" d="M19.46.153c.18.15.265.382.227.611l-2.626 15.757a.657.657 0 0 1-1.012.439l-7.878-5.253a.656.656 0 0 1-.149-.956l2.611-3.263-4.36 2.906a.657.657 0 0 1-.658.041L.363 7.81a.657.657 0 0 1 .073-1.205L18.819.038a.657.657 0 0 1 .642.115ZM2.327 7.323 5.862 9.09l7.561-5.04a.656.656 0 0 1 .877.956l-4.805 6.006 6.438 4.292L18.208 1.65 2.326 7.323Z" clip-rule="evenodd"/>
    </symbol>

    <symbol id="academy" viewBox="0 0 27 34" fill="currentcolor">
      <path d="M13.643.016 13.5 0 0 1.407v24.606L13.5 34 27 26.013V1.407L13.643.016Zm11.591 25L13.5 31.956 1.766 25.015V14.93l11.685 6.916.02 1.253-8.017-4.743-.011 1.225 8.046 4.809.02 1.286-8.045-4.758-.01 1.226L13.5 26.95l8.124-4.833V16.91l3.62-2.15-.01 10.256Zm0-11.564-3.22 1.88-1.482.875-7.065-4.187-.011 1.225 6.04 3.573-.053.031-.13.076-.86.492-4.986-2.948-.011 1.225 3.936 2.328-.933.61-.021.012-2.971-1.742-.011 1.225 1.947 1.135-1.988 1.186-11.618-6.872 11.638-6.958 11.8 6.834Zm0-1.225L13.44 5.31 1.766 12.22V2.99L13.5 1.764 25.234 2.99v9.237Z"/>
    </symbol>
  </svg>
